<?xml version="1.0" encoding="utf-8"?>
<!-- Generator: Adobe Illustrator 15.1.0, SVG Export Plug-In . SVG Version: 6.00 Build 0)  -->
<!DOCTYPE svg PUBLIC "-//W3C//DTD SVG 1.0//EN" "http://www.w3.org/TR/2001/REC-SVG-20010904/DTD/svg10.dtd">
<svg version="1.0" id="Layer_1" xmlns="http://www.w3.org/2000/svg" xmlns:xlink="http://www.w3.org/1999/xlink" x="0px" y="0px"
	 width="535.528px" height="178.938px" viewBox="0 0 535.528 178.938" enable-background="new 0 0 535.528 178.938"
	 xml:space="preserve">
<g>
	<path fill="#FFFFFF" d="M24.038,83.606c-4.095,0-6.234-2.046-6.417-6.138c-0.186-3.967-0.186-24.676,0-62.124
		c0-4.092,2.139-6.138,6.417-6.138h37.247c15.52,0,26.383,6.201,32.591,18.6c2.544,5.084,4.096,11.285,4.656,18.6
		c-0.558,7.316-2.108,13.517-4.65,18.6c-6.201,12.401-17.051,18.6-32.55,18.6H36.407v-6.231h24.924
		c9.672,0,17.173-2.874,22.506-8.623c4.959-5.315,7.78-12.764,8.463-22.346c-0.683-9.581-3.503-17.029-8.463-22.346
		c-5.333-5.749-12.834-8.623-22.506-8.623H27.014c-1.922,0.186-2.883,1.267-2.883,3.245V74.13c-0.249,2.164,0.712,3.245,2.883,3.245
		h9.393v6.231H24.038z"/>
	<path fill="#FFFFFF" d="M138.149,15.437c-9.672,0-17.174,2.883-22.506,8.649c-4.961,5.333-7.781,12.803-8.463,22.413
		c0.682,9.611,3.502,17.082,8.463,22.413c5.332,5.766,12.834,8.649,22.506,8.649h6.231c14.136,0,24.024-5.176,29.667-15.531
		c2.355-4.339,3.781-9.517,4.278-15.531c-0.497-6.013-1.922-11.19-4.278-15.531c-5.643-10.354-15.531-15.531-29.667-15.531H138.149
		V9.299h6.231c16.801,0,28.581,6.2,35.34,18.6c2.79,5.147,4.464,11.346,5.022,18.6c-0.558,7.254-2.232,13.455-5.022,18.6
		c-6.759,12.401-18.539,18.6-35.34,18.6h-6.231c-6.263,0-12.494-1.549-18.693-4.65C106.994,72.85,100.731,62,100.67,46.499
		c-0.063-15.499,6.169-26.349,18.693-32.55c5.269-2.604,11.532-4.153,18.786-4.65V15.437z"/>
	<path fill="#F8B62D" d="M191.81,27.899c6.261-12.4,17.205-18.6,32.829-18.6h40.176c1.983,0,3.037,0.962,3.162,2.883
		c-0.125,1.985-1.179,3.069-3.162,3.255h-40.176c-12.896,0-21.948,5.178-27.156,15.531c-2.171,4.34-3.441,9.518-3.813,15.531
		c0.682,9.611,3.502,17.082,8.463,22.413c5.332,5.766,12.834,8.649,22.506,8.649h43.338c2.046,0,3.13,1.055,3.255,3.162
		c-0.125,2.171-1.209,3.162-3.255,2.976h-43.338c-15.624,0-26.567-6.199-32.829-18.6c-2.604-5.146-4.155-11.346-4.65-18.6
		C187.655,39.245,189.206,33.046,191.81,27.899z"/>
	<path fill="#F8B62D" d="M357.349,80.072c0,0.621-0.155,1.241-0.465,1.86c-0.744,1.179-1.644,1.767-2.697,1.767
		c-0.558,0-1.055-0.124-1.487-0.372l-57.567-33.201l-15.159,9.726v20.855c0,1.808-1.055,2.806-3.162,2.992
		c-2.171-0.186-3.255-1.18-3.255-2.983V12.189c0-1.802,1.084-2.765,3.255-2.89c2.107,0.125,3.162,1.085,3.162,2.883v39.99
		l66.31-42.408c0.495-0.31,0.96-0.465,1.395-0.465c1.054,0,1.953,0.59,2.697,1.767c0.31,0.62,0.465,1.241,0.465,1.86
		c0,0.993-0.465,1.799-1.395,2.418L301.27,46.22l54.685,31.434C356.884,78.212,357.349,79.019,357.349,80.072z"/>
	<path fill="#F8B62D" d="M437.328,15.437h-68.262c-2.171,0-3.132,1.088-2.884,3.265v21.742c0,2.116,0.961,3.08,2.884,2.894h52.73
		c1.983,0,3.037,1.055,3.162,3.162c-0.125,2.109-1.179,3.162-3.162,3.162h-52.73c-2.171,0-3.132,0.965-2.884,2.893v21.742
		c0,1.928,0.961,3.017,2.884,3.265h71.424c2.046,0,3.13,1.055,3.255,3.162c-0.125,2.171-1.209,3.162-3.255,2.976h-74.308
		c-4.34,0-6.51-2.046-6.51-6.138c-0.186-37.447-0.186-58.155,0-62.124c0.187-4.092,2.355-6.138,6.51-6.138h71.146
		c1.983,0,3.037,0.962,3.162,2.883C440.365,14.167,439.312,15.251,437.328,15.437z"/>
	<path fill="#F8B62D" d="M455.383,49.754c-1.932-0.186-2.896,0.773-2.896,2.875V80.73c0,1.793-1.069,2.752-3.208,2.876
		c-2.14-0.124-3.209-1.083-3.209-2.879V15.437c0-3.839,2.17-5.916,6.51-6.231c6.943,0.125,24.49,0.125,52.639,0
		c8.989-0.061,15.313,3.016,18.972,9.229c1.549,2.672,2.479,5.749,2.79,9.228c-0.311,4.226-1.241,7.924-2.79,11.093
		c-3.597,7.333-9.92,10.999-18.972,10.999h-30.969v-6.51h30.969c9.732,0,14.91-5.176,15.531-15.531
		c-0.622-8.184-5.806-12.276-15.554-12.276h-49.821c-1.926,0.186-2.888,1.271-2.888,3.255v21.669
		c-0.248,1.922,0.717,2.883,2.896,2.883h18.866v6.51H455.383z M489.996,48.887c-0.827-0.801-1.239-1.541-1.239-2.219
		c0-0.802,0.355-1.526,1.069-2.174c0.712-0.647,1.472-0.971,2.278-0.971c0.805,0,1.549,0.341,2.232,1.023l33.759,33.759
		c0.495,0.621,0.744,1.302,0.744,2.046c0,0.807-0.309,1.551-0.925,2.232c-0.616,0.683-1.325,1.023-2.126,1.023
		c-0.74,0-1.418-0.32-2.034-0.961L489.996,48.887z"/>
</g>
<g>
	<path fill="#FFFFFF" d="M191.621,99.156c0-4.153,2.139-6.231,6.417-6.231h71.234c1.986,0,3.072,0.977,3.259,2.927
		c-0.063,0.631-0.218,1.133-0.465,1.511c-0.558,1.069-1.488,1.668-2.79,1.793h-68.262c-2.171,0-3.131,1.085-2.883,3.255v21.669
		c0,2.108,0.96,3.069,2.883,2.883h52.731c1.984,0,3.069,1.085,3.255,3.255c-0.186,2.171-1.271,3.255-3.255,3.255h-52.731
		c-2.171,0-3.131,0.959-2.883,2.875v28.101c0,1.793-1.085,2.752-3.255,2.876c-2.171-0.124-3.255-1.083-3.255-2.879V99.156z"/>
	<path fill="#FFFFFF" d="M356.603,164.256c0,1.055-0.558,1.953-1.674,2.697c-0.621,0.311-1.241,0.465-1.86,0.465
		c-0.992,0-1.706-0.526-2.139-1.581l-20.646-32.457h-40.455l-20.553,32.457c-0.497,1.055-1.241,1.581-2.232,1.581
		c-0.558,0-1.148-0.154-1.767-0.465c-1.178-0.805-1.767-1.705-1.767-2.697c0-0.496,0.154-0.991,0.465-1.488l43.338-68.355
		c0.619-0.991,1.549-1.456,2.79-1.395c1.239-0.061,2.17,0.404,2.79,1.395l43.338,68.355
		C356.478,163.265,356.603,163.76,356.603,164.256z M326.378,127.242l-16.275-25.854l-16.368,25.854H326.378z"/>
	<path fill="#FFFFFF" d="M368.798,133.473c-1.932-0.186-2.896,0.773-2.896,2.875v28.101c0,1.793-1.069,2.752-3.208,2.876
		c-2.14-0.124-3.209-1.083-3.209-2.879V99.156c0-3.839,2.17-5.916,6.51-6.231c6.943,0.125,24.49,0.125,52.639,0
		c8.989-0.061,15.313,3.016,18.972,9.229c1.549,2.672,2.479,5.749,2.79,9.228c-0.311,4.226-1.241,7.924-2.79,11.093
		c-3.597,7.333-9.92,10.999-18.972,10.999h-30.969v-6.51h30.969c9.732,0,14.91-5.176,15.531-15.531
		c-0.622-8.184-5.806-12.276-15.554-12.276h-49.821c-1.926,0.186-2.888,1.271-2.888,3.255v21.669
		c-0.248,1.922,0.717,2.883,2.896,2.883h18.866v6.51H368.798z M403.411,132.605c-0.827-0.801-1.239-1.541-1.239-2.219
		c0-0.802,0.355-1.526,1.069-2.174c0.712-0.647,1.472-0.971,2.278-0.971c0.805,0,1.549,0.341,2.232,1.023l33.759,33.759
		c0.495,0.621,0.744,1.302,0.744,2.046c0,0.807-0.309,1.551-0.925,2.232c-0.616,0.683-1.325,1.023-2.126,1.023
		c-0.74,0-1.418-0.32-2.034-0.961L403.411,132.605z"/>
	<path fill="#FFFFFF" d="M486.895,130.218c-1.364,0-6.542-4.278-15.531-12.834l-15.53-14.973c-0.931-0.868-1.706-1.302-2.325-1.302
		c-0.497,0-0.683,0.435-0.559,1.302v62.124c0,1.799-1.085,2.759-3.255,2.883c-2.171-0.124-3.255-1.084-3.255-2.883V99.156
		c0-3.781,2.17-5.827,6.51-6.138c1.984-0.124,4.03,0.869,6.139,2.976l27.807,28.086c16.987-17.05,26.287-26.412,27.9-28.086
		c2.046-2.17,4.092-3.162,6.138-2.976c4.339,0.311,6.51,2.357,6.51,6.138v65.379c0,1.799-1.085,2.759-3.255,2.883
		c-2.171-0.124-3.255-1.084-3.255-2.883v-62.124c0.124-0.868-0.063-1.302-0.558-1.302c-0.621,0-1.396,0.435-2.325,1.302
		c-6.944,6.635-12.122,11.625-15.531,14.973c-8.928,8.556-14.105,12.834-15.531,12.834H486.895z"/>
</g>
<g>
	<polygon fill="#FFFFFF" points="130.169,123.358 115.091,132.336 105.867,114.928 	"/>
	<polygon fill="#F1B81C" points="34.498,64.681 31.388,61.345 8.299,55.002 6.797,57.566 30.947,75.991 	"/>
	<polygon fill="#F1B81C" points="37.637,62.811 55.63,68.956 56.658,71.779 43.772,74.491 34.672,64.253 	"/>
	<polygon fill="#FFFFFF" points="34.922,65.238 38.956,78.836 56.08,89.051 	"/>
	<polygon fill="#FFFFFF" points="38.483,79.162 32.751,89.64 31.219,76.469 34.592,65.38 	"/>
	<polygon fill="#FFFFFF" points="32.932,90.011 51.308,107.081 66.639,95.734 38.895,79.459 	"/>
	<polygon fill="#FFFFFF" points="50.483,107.156 35.006,116.549 32.557,90.421 	"/>
	<polygon fill="#FFFFFF" points="51.067,107.718 49.501,130.814 35.59,116.958 	"/>
	<polygon fill="#FFFFFF" points="69.659,122.215 51.659,107.922 49.934,130.886 	"/>
	<polygon fill="#FFFFFF" points="70.131,121.967 52.086,107.504 67.374,96.065 	"/>
	<polygon fill="#FFFFFF" points="91.861,109.959 67.942,95.882 70.603,122.112 	"/>
	<polygon fill="#FFFFFF" points="69.422,123.893 67.147,138.246 55.819,144.21 	"/>
	<polygon fill="#FFFFFF" points="93.01,128.722 90.394,137.731 68.025,138.488 	"/>
	<polyline fill="#FFFFFF" points="53.586,144.939 23.558,147.965 19.693,141.31 39.009,136.274 53.334,144.776 	"/>
	<polygon fill="#FFFFFF" points="69.712,122.748 54.689,144.991 39.433,135.862 	"/>
	<polygon fill="#FFFFFF" points="92.597,128.516 70.221,123.557 67.748,138.299 	"/>
	<polygon fill="#FFFFFF" points="92.152,110.603 93.066,127.83 70.483,122.731 	"/>
	<polygon fill="#FFFFFF" points="104.593,114.789 92.832,110.42 93.628,127.992 	"/>
	<polygon fill="#FFFFFF" points="90.167,138.421 86.625,148.794 67.843,138.846 	"/>
	<polygon fill="#FFFFFF" points="75.168,165.401 68.617,159.253 55.507,164.335 57.512,169.365 	"/>
	<polygon fill="#FFFFFF" points="86.575,149.612 75.346,164.753 69.086,158.869 	"/>
	<polygon fill="#FFFFFF" points="102.781,153.703 75.455,165.223 87.032,149.731 	"/>
	<polygon fill="#FFFFFF" points="102.865,153.116 90.53,138.869 87.195,149.03 	"/>
	<polygon fill="#FFFFFF" points="115.216,133.563 103.618,153.83 138.799,156.218 	"/>
	<polygon fill="#FFFFFF" points="114.981,133.183 103.479,153.013 91.037,138.367 	"/>
	<polygon fill="#FFFFFF" points="93.496,128.596 90.707,137.721 114.507,132.701 	"/>
	<polygon fill="#FFFFFF" points="105.23,114.902 94.217,128.074 114.614,132.42 	"/>
	<polygon fill="#FFFFFF" points="140.976,138.141 120.588,137.991 115.066,132.705 121.333,129.047 	"/>
	<g>
		<polygon fill="#FFFFFF" points="163.635,144.356 161.909,140.585 126.483,125.995 121.767,128.868 127.097,127.752 		"/>
		<polygon fill="#FFFFFF" points="121.848,128.835 127.097,127.752 148.446,137.438 148.484,137.437 163.593,144.193 
			165.066,147.658 141.61,137.882 141.551,137.885 		"/>
		<polygon fill="#FFFFFF" points="161.921,140.653 159.582,137.253 130.984,123.389 126.407,126.062 		"/>
		<g>
			<path fill="#FFFFFF" d="M155.948,139.13c0.409,0.605,1.003,1.12,1.597,1.634c-0.408-0.605-1.003-1.119-1.734-1.681
				c0.59,0.976,1.411,1.724,2.329,2.195c-0.228-0.234-0.546-0.651-0.913-0.934c1.412,1.724,3.715,2.211,5.03,4.211
				c-5.438-4.816-13.236-9.058-20.187-10.844c1.093,1.305,2.516,2.106,4.171,2.678c-0.823-0.747-1.879-1.267-2.796-1.738
				c2.382,1.596,5.05,2.365,7.575,3.547c-1.416-1.262-3.438-2.115-5.278-2.599c1.326,1.077,2.933,1.787,4.403,2.451
				c-1.007-0.659-2.154-1.363-3.21-1.883c0.043,0.324,0.133,0.51,0.313,0.881c-3.348-1.931-6.785-4.046-10.324-5.423
				c0.867,1.071,2.611,1.83,3.895,2.581c-1.835-0.943-3.671-1.887-5.555-2.694c4.123,2.818,9.259,5.828,13.899,7.588
				c-2.408-3.305-9.353-5.551-13.256-7.211c2.111,1.04,4.36,2.126,6.615,2.752c-1.464-1.125-3.209-1.883-4.865-2.456
				c0.139,0.048,0.414,0.144,0.504,0.329c-2.567-1.505-5.602-2.555-8.409-3.372c1.236,0.891,2.796,1.739,4.127,2.354
				c-1.558-0.849-3.342-2.392-4.949-3.102c-1.103-0.382-3.549-0.455-4.19-0.832"/>
		</g>
		<g>
			<path fill="#FFFFFF" d="M124.224,128.158c1.156-0.217,2.223-0.622,3.427-0.977c-0.933,0.912-1.915,1.963-3.209,2.133"/>
		</g>
		<g>
			<path fill="#FFFFFF" d="M126.846,129.064c3.007-0.659,6.164,1.823,8.875,2.915c-1.656-0.572-3.076-1.373-4.499-2.173
				c2.249,1.087,4.451,2.313,6.658,3.075c-1.831-1.405-3.99-2.307-6.244-2.932"/>
		</g>
	</g>
	<g>
		<path fill="#FFFFFF" d="M121.245,138.422l2.273,2.076l0.226,0.217l2.706,2.608l-0.011,0.007l0.024,0.013l0.007-0.001l2.812,2.713
			l2.863,2.759l0.265,0.256l1.717,1.653l0.013-0.001l2.685,2.56l-0.004,0l2.578,2.523l16.318,0.71l0.626-4.649l-2.74-2.437
			l-3.283-2.043l0.191-0.017l-2.264-2.105l-2.25-2.24l0.172-0.002l-2.247-2.285h0.492l-2.607-2.076L121.245,138.422z
			 M131.937,148.57L131.937,148.57l18.01-1.413L131.937,148.57z"/>
		<polygon fill="#FFFFFF" points="161.649,153.424 161.665,154.677 155.676,156.488 141.814,138.608 		"/>
	</g>
</g>
</svg>
