<?xml version="1.0" encoding="utf-8"?>
<!-- Generator: Adobe Illustrator 15.1.0, SVG Export Plug-In . SVG Version: 6.00 Build 0)  -->
<!DOCTYPE svg PUBLIC "-//W3C//DTD SVG 1.0//EN" "http://www.w3.org/TR/2001/REC-SVG-20010904/DTD/svg10.dtd">
<svg version="1.0" id="Layer_1" xmlns="http://www.w3.org/2000/svg" xmlns:xlink="http://www.w3.org/1999/xlink" x="0px" y="0px"
	 width="535.528px" height="178.938px" viewBox="0 0 535.528 178.938" enable-background="new 0 0 535.528 178.938"
	 xml:space="preserve">
<g>
	<path fill="#262757" d="M24.038,83.606c-4.095,0-6.234-2.046-6.417-6.138c-0.186-3.967-0.186-24.676,0-62.124
		c0-4.092,2.139-6.138,6.417-6.138h37.247c15.52,0,26.383,6.201,32.591,18.6c2.544,5.084,4.096,11.285,4.656,18.6
		c-0.558,7.316-2.108,13.517-4.65,18.6c-6.201,12.401-17.051,18.6-32.55,18.6H36.407v-6.231h24.924
		c9.672,0,17.173-2.874,22.506-8.623c4.959-5.315,7.78-12.764,8.463-22.346c-0.683-9.581-3.503-17.029-8.463-22.346
		c-5.333-5.749-12.834-8.623-22.506-8.623H27.014c-1.922,0.186-2.883,1.267-2.883,3.245V74.13c-0.249,2.164,0.712,3.245,2.883,3.245
		h9.393v6.231H24.038z"/>
	<path fill="#262757" d="M138.149,15.437c-9.672,0-17.174,2.883-22.506,8.649c-4.961,5.333-7.781,12.803-8.463,22.413
		c0.682,9.611,3.502,17.082,8.463,22.413c5.332,5.766,12.834,8.649,22.506,8.649h6.231c14.136,0,24.024-5.176,29.667-15.531
		c2.355-4.339,3.781-9.517,4.278-15.531c-0.497-6.013-1.922-11.19-4.278-15.531c-5.643-10.354-15.531-15.531-29.667-15.531H138.149
		V9.299h6.231c16.801,0,28.581,6.2,35.34,18.6c2.79,5.147,4.464,11.346,5.022,18.6c-0.558,7.254-2.232,13.455-5.022,18.6
		c-6.759,12.401-18.539,18.6-35.34,18.6h-6.231c-6.263,0-12.494-1.549-18.693-4.65C106.994,72.85,100.731,62,100.67,46.499
		c-0.063-15.499,6.169-26.349,18.693-32.55c5.269-2.604,11.532-4.153,18.786-4.65V15.437z"/>
	<path fill="#2BB7C4" d="M191.81,27.899c6.261-12.4,17.205-18.6,32.829-18.6h40.176c1.983,0,3.037,0.962,3.162,2.883
		c-0.125,1.985-1.179,3.069-3.162,3.255h-40.176c-12.896,0-21.948,5.178-27.156,15.531c-2.171,4.34-3.441,9.518-3.813,15.531
		c0.682,9.611,3.502,17.082,8.463,22.413c5.332,5.766,12.834,8.649,22.506,8.649h43.338c2.046,0,3.13,1.055,3.255,3.162
		c-0.125,2.171-1.209,3.162-3.255,2.976h-43.338c-15.624,0-26.567-6.199-32.829-18.6c-2.604-5.146-4.155-11.346-4.65-18.6
		C187.655,39.245,189.206,33.046,191.81,27.899z"/>
	<path fill="#2BB7C4" d="M357.349,80.072c0,0.621-0.155,1.241-0.465,1.86c-0.744,1.179-1.644,1.767-2.697,1.767
		c-0.558,0-1.055-0.124-1.487-0.372l-57.567-33.201l-15.159,9.726v20.855c0,1.808-1.055,2.806-3.162,2.992
		c-2.171-0.186-3.255-1.18-3.255-2.983V12.189c0-1.802,1.084-2.765,3.255-2.89c2.107,0.125,3.162,1.085,3.162,2.883v39.99
		l66.31-42.408c0.495-0.31,0.96-0.465,1.395-0.465c1.054,0,1.953,0.59,2.697,1.767c0.31,0.62,0.465,1.241,0.465,1.86
		c0,0.993-0.465,1.799-1.395,2.418L301.27,46.22l54.685,31.434C356.884,78.212,357.349,79.019,357.349,80.072z"/>
	<path fill="#2BB7C4" d="M437.328,15.437h-68.262c-2.171,0-3.132,1.088-2.884,3.265v21.742c0,2.116,0.961,3.08,2.884,2.894h52.73
		c1.983,0,3.037,1.055,3.162,3.162c-0.125,2.109-1.179,3.162-3.162,3.162h-52.73c-2.171,0-3.132,0.965-2.884,2.893v21.742
		c0,1.928,0.961,3.017,2.884,3.265h71.424c2.046,0,3.13,1.055,3.255,3.162c-0.125,2.171-1.209,3.162-3.255,2.976h-74.308
		c-4.34,0-6.51-2.046-6.51-6.138c-0.186-37.447-0.186-58.155,0-62.124c0.187-4.092,2.355-6.138,6.51-6.138h71.146
		c1.983,0,3.037,0.962,3.162,2.883C440.365,14.167,439.312,15.251,437.328,15.437z"/>
	<path fill="#2BB7C4" d="M455.383,49.754c-1.932-0.186-2.896,0.773-2.896,2.875V80.73c0,1.793-1.069,2.752-3.208,2.876
		c-2.14-0.124-3.209-1.083-3.209-2.879V15.437c0-3.839,2.17-5.916,6.51-6.231c6.943,0.125,24.49,0.125,52.639,0
		c8.989-0.061,15.313,3.016,18.972,9.229c1.549,2.672,2.479,5.749,2.79,9.228c-0.311,4.226-1.241,7.924-2.79,11.093
		c-3.597,7.333-9.92,10.999-18.972,10.999h-30.969v-6.51h30.969c9.732,0,14.91-5.176,15.531-15.531
		c-0.622-8.184-5.806-12.276-15.554-12.276h-49.821c-1.926,0.186-2.888,1.271-2.888,3.255v21.669
		c-0.248,1.922,0.717,2.883,2.896,2.883h18.866v6.51H455.383z M489.996,48.887c-0.827-0.801-1.239-1.541-1.239-2.219
		c0-0.802,0.355-1.526,1.069-2.174c0.712-0.647,1.472-0.971,2.278-0.971c0.805,0,1.549,0.341,2.232,1.023l33.759,33.759
		c0.495,0.621,0.744,1.302,0.744,2.046c0,0.807-0.309,1.551-0.925,2.232c-0.616,0.683-1.325,1.023-2.126,1.023
		c-0.74,0-1.418-0.32-2.034-0.961L489.996,48.887z"/>
</g>
<g>
	<path fill="#262757" d="M191.621,99.156c0-4.153,2.139-6.231,6.417-6.231h71.234c1.986,0,3.072,0.977,3.259,2.927
		c-0.063,0.631-0.218,1.133-0.465,1.511c-0.558,1.069-1.488,1.668-2.79,1.793h-68.262c-2.171,0-3.131,1.085-2.883,3.255v21.669
		c0,2.108,0.96,3.069,2.883,2.883h52.731c1.984,0,3.069,1.085,3.255,3.255c-0.186,2.171-1.271,3.255-3.255,3.255h-52.731
		c-2.171,0-3.131,0.959-2.883,2.875v28.101c0,1.793-1.085,2.752-3.255,2.876c-2.171-0.124-3.255-1.083-3.255-2.879V99.156z"/>
	<path fill="#262757" d="M356.603,164.256c0,1.055-0.558,1.953-1.674,2.697c-0.621,0.311-1.241,0.465-1.86,0.465
		c-0.992,0-1.706-0.526-2.139-1.581l-20.646-32.457h-40.455l-20.553,32.457c-0.497,1.055-1.241,1.581-2.232,1.581
		c-0.558,0-1.148-0.154-1.767-0.465c-1.178-0.805-1.767-1.705-1.767-2.697c0-0.496,0.154-0.991,0.465-1.488l43.338-68.355
		c0.619-0.991,1.549-1.456,2.79-1.395c1.239-0.061,2.17,0.404,2.79,1.395l43.338,68.355
		C356.478,163.265,356.603,163.76,356.603,164.256z M326.378,127.242l-16.275-25.854l-16.368,25.854H326.378z"/>
	<path fill="#262757" d="M368.798,133.473c-1.932-0.186-2.896,0.773-2.896,2.875v28.101c0,1.793-1.069,2.752-3.208,2.876
		c-2.14-0.124-3.209-1.083-3.209-2.879V99.156c0-3.839,2.17-5.916,6.51-6.231c6.943,0.125,24.49,0.125,52.639,0
		c8.989-0.061,15.313,3.016,18.972,9.229c1.549,2.672,2.479,5.749,2.79,9.228c-0.311,4.226-1.241,7.924-2.79,11.093
		c-3.597,7.333-9.92,10.999-18.972,10.999h-30.969v-6.51h30.969c9.732,0,14.91-5.176,15.531-15.531
		c-0.622-8.184-5.806-12.276-15.554-12.276h-49.821c-1.926,0.186-2.888,1.271-2.888,3.255v21.669
		c-0.248,1.922,0.717,2.883,2.896,2.883h18.866v6.51H368.798z M403.411,132.605c-0.827-0.801-1.239-1.541-1.239-2.219
		c0-0.802,0.355-1.526,1.069-2.174c0.712-0.647,1.472-0.971,2.278-0.971c0.805,0,1.549,0.341,2.232,1.023l33.759,33.759
		c0.495,0.621,0.744,1.302,0.744,2.046c0,0.807-0.309,1.551-0.925,2.232c-0.616,0.683-1.325,1.023-2.126,1.023
		c-0.74,0-1.418-0.32-2.034-0.961L403.411,132.605z"/>
	<path fill="#262757" d="M486.895,130.218c-1.364,0-6.542-4.278-15.531-12.834l-15.53-14.973c-0.931-0.868-1.706-1.302-2.325-1.302
		c-0.497,0-0.683,0.435-0.559,1.302v62.124c0,1.799-1.085,2.759-3.255,2.883c-2.171-0.124-3.255-1.084-3.255-2.883V99.156
		c0-3.781,2.17-5.827,6.51-6.138c1.984-0.124,4.03,0.869,6.139,2.976l27.807,28.086c16.987-17.05,26.287-26.412,27.9-28.086
		c2.046-2.17,4.092-3.162,6.138-2.976c4.339,0.311,6.51,2.357,6.51,6.138v65.379c0,1.799-1.085,2.759-3.255,2.883
		c-2.171-0.124-3.255-1.084-3.255-2.883v-62.124c0.124-0.868-0.063-1.302-0.558-1.302c-0.621,0-1.396,0.435-2.325,1.302
		c-6.944,6.635-12.122,11.625-15.531,14.973c-8.928,8.556-14.105,12.834-15.531,12.834H486.895z"/>
</g>
<polygon fill="#1E87C3" points="127.823,125.541 112.792,134.05 104.092,116.724 "/>
<polygon fill="#2BB5C5" points="35.122,65.684 32.133,62.335 9.553,55.597 8.019,58.086 31.383,76.735 "/>
<polygon fill="#25A7DC" points="38.25,63.913 55.821,70.348 56.771,73.147 44.035,75.537 35.302,65.266 "/>
<polygon fill="#74C9DA" points="35.526,66.242 39.201,79.709 55.829,90.128 "/>
<polygon fill="#147DAE" points="38.729,80.019 32.864,90.205 31.64,77.212 35.198,66.375 "/>
<polygon fill="#1594C2" points="33.033,90.573 50.745,107.766 66.075,96.933 39.127,80.319 "/>
<polygon fill="#0B5D90" points="50.337,107.971 34.904,116.881 33.06,91.119 "/>
<polygon fill="#0F467E" points="50.552,108.357 48.512,131.048 35.123,117.115 "/>
<polygon fill="#292758" points="68.474,123.053 51.073,108.601 48.88,131.157 "/>
<polygon fill="#0C5E92" points="68.54,122.669 51.098,108.048 66.387,97.125 "/>
<polygon fill="#1989BB" points="90.148,111.543 66.883,97.232 68.996,123.093 "/>
<polygon fill="#2F3880" points="68.206,124.698 65.658,138.771 54.383,144.396 "/>
<polygon fill="#055082" points="91.119,130.209 88.385,138.826 68.751,138.692 "/>
<polyline fill="#D8EDEB" points="52.151,144.885 22.541,147.214 18.881,140.583 37.995,136.045 51.907,144.718 "/>
<polygon fill="#BCDFE7" points="68.593,123.352 53.07,145.02 38.518,135.601 "/>
<polygon fill="#96CBDB" points="90.908,129.748 68.999,124.385 66.247,138.836 "/>
<polygon fill="#1CA3CA" points="90.856,112.113 91.385,129.082 69.275,123.579 "/>
<polygon fill="#26AEC5" points="103.023,116.458 91.545,111.908 91.948,129.214 "/>
<polygon fill="#2F305F" points="88.349,139.492 84.642,149.622 66.375,139.429 "/>
<polygon fill="#92CBE1" points="73.113,165.258 66.801,159.068 53.792,163.786 55.655,168.779 "/>
<polygon fill="#7CB3D4" points="84.477,150.091 73.101,164.748 67.07,158.821 "/>
<polygon fill="#4991AF" points="100.504,154.427 73.34,165.068 84.872,150.32 "/>
<polygon fill="#0A5C84" points="100.48,154.173 88.651,139.889 85.15,149.814 "/>
<polygon fill="#035387" points="112.801,134.647 100.952,154.339 135.516,157.447 "/>
<polygon fill="#29345F" points="112.427,134.672 100.683,153.937 88.757,139.256 "/>
<polygon fill="#2F3880" points="91.791,129.845 88.849,138.762 112.374,134.337 "/>
<polygon fill="#1480A9" points="103.631,116.626 92.512,129.346 112.486,134.063 "/>
<polygon fill="#74C9DA" points="159.909,147.12 158.29,143.373 123.751,128.252 119.048,130.977 124.315,129.993 "/>
<polygon fill="#1473AD" points="138.3,140.261 118.245,139.673 112.926,134.354 119.171,130.889 "/>
<polygon fill="#74C9DA" points="119.128,130.947 124.315,129.993 145.112,139.986 145.15,139.986 159.869,146.959 161.246,150.399 
	138.378,140.274 138.319,140.276 "/>
<polygon fill="#C1E5EE" points="158.301,143.439 156.074,140.044 128.235,125.784 123.675,128.316 "/>
<path fill="#4182A6" d="M118.479,139.963l2.191,2.091l0.217,0.217l2.605,2.625l-0.01,0.008l0.022,0.013l0.008-0.001l2.708,2.729
	l2.758,2.778l0.255,0.257l1.654,1.665l0.012-0.001l2.585,2.576l-0.002,0l2.482,2.539l16.039,1.05l0.718-4.56l-2.645-2.458
	l-3.186-2.08l0.188-0.014l-2.181-2.119l-2.166-2.252l0.169,0.001l-2.161-2.296l0.483,0.011l-2.52-2.099L118.479,139.963z
	 M128.778,150.179l-0.001-0.002l17.753-1L128.778,150.179z"/>
<polygon fill="#BCDFE7" points="157.908,155.595 157.896,156.828 151.965,158.481 138.711,140.589 "/>
</svg>
